<svg width="80" height="80" viewBox="0 0 80 80" xmlns="http://www.w3.org/2000/svg">
  <!--path d="M 35 20 c 0 -10, 8 -13, 15 -13 c 22 0, 18 20, 17 25 l -7 0 c 3 0, 5 -5, 5 -7 c -15 -5, -16 -10, -16 -10" fill="transparent" stroke="black"/-->
  <!--服下-->
  <path d="M 25 10 l 5 0, 0 20, -5 0, 0 -20 z" fill='rgb(0, 0, 0)'/>
  <path d="M 30 10 l 20 0, 0 40, -20 0, 0 -40 z" fill='rgb(0, 0, 0)'/>
  <path d="M 25 50 l 30 0, 0 20, -30 0, 0 -20 z" fill='rgb(0, 0, 0)'/>
  <path d="M 30 15 l 10 0, 0 10, -10 0, 0 -10 z" fill='rgb(240, 240, 0)'/>
  <path d="M 35 15 l 10 0, 0 45, -10 0, 0 -45 z" fill='rgb(240, 240, 0)'/>
  <path d="M 30 55 l 20 0, 0 10, -20 0, 0 -10 z" fill='rgb(240, 240, 0)'/>
</svg>
