<svg width="100" height="100" viewBox="0 0 100 100" xmlns="http://www.w3.org/2000/svg">
  
  <path d="M 24 90 l -2 9.5, 2 0, 10 -9.5, -10 0 z" fill='rgb(133, 142, 85)' stroke="black" stroke-linejoin="bevel"/>
  <path d="M 50 90 l 4 9.5, 2 0, 2 -9.5, -8 0 z" fill='rgb(163, 174, 105)' stroke="black" stroke-linejoin="bevel"/>
  
  <path d="M 14 92 l 3 3, 30 -2, 43 1, -32 -10 z" fill='rgb(36, 5, 5)' stroke="black" stroke-linejoin="bevel"/>
  
  <path d="M 30 90 l 3 0, 0 3, -3 0, 0 -3 z" fill='rgb(256, 5, 5)' stroke="black" stroke-linejoin="bevel"/>
  <path d="M 25 91 l 3 0, 0 3, -3 0, 0 -3 z" fill='rgb(256, 5, 5)' stroke="black" stroke-linejoin="bevel"/>
  
  <path d="M 64 84 l 14 15.5, 2 0, -6 -15.5, -10 0 z" fill='rgb(174, 184, 123)' stroke="black" stroke-linejoin="bevel"/>
  <path d="M 54 84 l 9 15.5, 2 0, -1 -15.5, -10 0 z" fill='rgb(163, 174, 105)' stroke="black" stroke-linejoin="bevel"/>
  <path d="M 48 84 l -4 15.5, 2 0, 12 -15.5, -10 0 z" fill='rgb(157, 167, 90)' stroke="black" stroke-linejoin="bevel"/>
  <path d="M 38 84 l -6 15.5, 2 0, 14 -15.5, -10 0 z" fill='rgb(137, 148, 61)' stroke="black" stroke-linejoin="bevel"/>
  
  <path d="M 68 68 l 18 14, 4 12, -16 -2, -6 -24 z" fill='rgb(96, 124, 82)' stroke="black" stroke-linejoin="bevel"/>
  <path d="M 42 68 l 30 -2, 2 26, -26 -6, -6 -18 z" fill='rgb(115, 143, 86)' stroke="black" stroke-linejoin="bevel"/>
  <path d="M 30 68 c -13 3, -17 13, -18 20 l 2 4, 34 -6, -4 -20 z" fill='rgb(116, 166, 91)' stroke="black" stroke-linejoin="bevel"/>
</svg>
