<?xml version="1.0" encoding="UTF-8" standalone="no"?>
<svg
   width="100"
   height="100"
   viewBox="0 0 100 100"
   version="1.1"
   id="svg27"
   sodipodi:docname="nohara.svg"
   inkscape:version="1.4 (86a8ad7, 2024-10-11)"
   xmlns:inkscape="http://www.inkscape.org/namespaces/inkscape"
   xmlns:sodipodi="http://sodipodi.sourceforge.net/DTD/sodipodi-0.dtd"
   xmlns="http://www.w3.org/2000/svg"
   xmlns:svg="http://www.w3.org/2000/svg">
  <defs
     id="defs27" />
  <sodipodi:namedview
     id="namedview27"
     pagecolor="#ffffff"
     bordercolor="#000000"
     borderopacity="0.25"
     inkscape:showpageshadow="2"
     inkscape:pageopacity="0.0"
     inkscape:pagecheckerboard="0"
     inkscape:deskcolor="#d1d1d1"
     showgrid="false"
     inkscape:zoom="5.656854"
     inkscape:cx="68.500972"
     inkscape:cy="49.939419"
     inkscape:window-width="1920"
     inkscape:window-height="1009"
     inkscape:window-x="-8"
     inkscape:window-y="-8"
     inkscape:window-maximized="1"
     inkscape:current-layer="svg27" />
  <!--path d="M 35 20 c 0 -10, 8 -13, 15 -13 c 22 0, 18 20, 17 25 l -7 0 c 3 0, 5 -5, 5 -7 c -15 -5, -16 -10, -16 -10" fill="transparent" stroke="black"/-->
  <!--服下-->
  <!--服上-->
  <!--頭-->
  <!--表情-->
  <!--髪-->
  <path
     style="fill:#96dc46;fill-opacity:1;fill-rule:evenodd;stroke:none;stroke-width:0.5"
     d="M 0,100 H 100 V 28 C 54.808381,28.036722 24.507501,19.835566 0,24 Z"
     id="path1"
     sodipodi:nodetypes="ccccc" />
  <path
     style="fill:#78be96;fill-opacity:1;fill-rule:evenodd;stroke:none;stroke-width:0.5"
     d="M 0,100 H 100 V 33 C 48.944419,24.7668 62.152425,39.221605 0,40 Z"
     id="path2"
     sodipodi:nodetypes="ccccc" />
  <path
     style="fill:#64a082;fill-opacity:1;fill-rule:evenodd;stroke:none;stroke-width:0.5"
     d="M 0,100 H 100 V 57 C 67.81942,47.8918 63.902425,47.721605 0,48 Z"
     id="path3"
     sodipodi:nodetypes="ccccc" />
</svg>
