<?xml version="1.0" encoding="UTF-8" standalone="no"?>
<svg
   width="100"
   height="100"
   viewBox="0 0 100 100"
   version="1.1"
   id="svg27"
   sodipodi:docname="bou.svg"
   inkscape:version="1.4 (86a8ad7, 2024-10-11)"
   xmlns:inkscape="http://www.inkscape.org/namespaces/inkscape"
   xmlns:sodipodi="http://sodipodi.sourceforge.net/DTD/sodipodi-0.dtd"
   xmlns:xlink="http://www.w3.org/1999/xlink"
   xmlns="http://www.w3.org/2000/svg"
   xmlns:svg="http://www.w3.org/2000/svg">
  <defs
     id="defs27">
    <linearGradient
       id="linearGradient7"
       inkscape:collect="always">
      <stop
         style="stop-color:#ebebeb;stop-opacity:1;"
         offset="0"
         id="stop7" />
      <stop
         style="stop-color:#141414;stop-opacity:0;"
         offset="1"
         id="stop8" />
    </linearGradient>
    <radialGradient
       inkscape:collect="always"
       xlink:href="#linearGradient7"
       id="radialGradient8"
       cx="52.035858"
       cy="107.69827"
       fx="52.035858"
       fy="107.69827"
       r="17"
       gradientTransform="matrix(1.9044115,0.00735292,-5.6779229e-4,0.14705787,-46.974039,82.779509)"
       gradientUnits="userSpaceOnUse" />
  </defs>
  <sodipodi:namedview
     id="namedview27"
     pagecolor="#ffffff"
     bordercolor="#000000"
     borderopacity="0.25"
     inkscape:showpageshadow="2"
     inkscape:pageopacity="0.0"
     inkscape:pagecheckerboard="0"
     inkscape:deskcolor="#d1d1d1"
     showgrid="false"
     inkscape:zoom="5.656855"
     inkscape:cx="59.48535"
     inkscape:cy="47.110983"
     inkscape:window-width="1920"
     inkscape:window-height="1009"
     inkscape:window-x="-8"
     inkscape:window-y="-8"
     inkscape:window-maximized="1"
     inkscape:current-layer="svg27" />
  <!--path d="M 35 20 c 0 -10, 8 -13, 15 -13 c 22 0, 18 20, 17 25 l -7 0 c 3 0, 5 -5, 5 -7 c -15 -5, -16 -10, -16 -10" fill="transparent" stroke="black"/-->
  <!--服下-->
  <!--服上-->
  <!--頭-->
  <!--表情-->
  <!--髪-->
  <path
     style="fill:url(#radialGradient8);fill-rule:evenodd;stroke-width:1.00157;stroke-linejoin:bevel"
     d="M 62.124994,99.999995 C 65.586642,100.07392 66.730809,97.341624 67,95 H 33 c 0.376033,2.278427 1.848075,5.0982 5,5 z"
     id="path1"
     sodipodi:nodetypes="ccccc" />
  <path
     style="fill:#8c6e50;fill-opacity:1;fill-rule:evenodd;stroke:none;stroke-width:0.5;stroke-linejoin:bevel;stroke-dasharray:none;stroke-opacity:1"
     d="M 38,100 V 40 h 24 v 60 z"
     id="path38"
     sodipodi:nodetypes="ccccc" />
  <path
     style="fill:#3c2828;fill-opacity:1;fill-rule:evenodd;stroke:none;stroke-width:0.5;stroke-linejoin:bevel;stroke-opacity:1"
     d="m 62,40 h -4 v 60 h 4 z"
     id="path4"
     sodipodi:nodetypes="ccccc" />
  <path
     style="fill:#d0ab50;fill-opacity:1;fill-rule:evenodd;stroke:none;stroke-width:0.5;stroke-opacity:1"
     d="M 37.999998,39.999996 C 37.978448,36.613955 62.016144,36.530784 62,40 c -0.0031,2.889226 -24.021096,2.831223 -24.000002,-4e-6 z"
     id="path5"
     sodipodi:nodetypes="ccc" />
  <path
     style="fill:#f0c878;fill-opacity:1;fill-rule:evenodd;stroke:none;stroke-width:0.5;stroke-opacity:1"
     d="m 39.000002,39.5 c 0.0097,-3.026666 22.016142,-2.953591 21.999998,0 0.0125,2.576726 -21.989842,2.674977 -21.999998,0 z"
     id="path6"
     sodipodi:nodetypes="ccc" />
</svg>
