<?xml version="1.0" encoding="UTF-8" standalone="no"?>
<svg
   width="100"
   height="100"
   viewBox="0 0 100 100"
   version="1.1"
   id="svg27"
   sodipodi:docname="idou.svg"
   inkscape:version="1.4 (86a8ad7, 2024-10-11)"
   xmlns:inkscape="http://www.inkscape.org/namespaces/inkscape"
   xmlns:sodipodi="http://sodipodi.sourceforge.net/DTD/sodipodi-0.dtd"
   xmlns="http://www.w3.org/2000/svg"
   xmlns:svg="http://www.w3.org/2000/svg">
  <defs
     id="defs27" />
  <sodipodi:namedview
     id="namedview27"
     pagecolor="#ffffff"
     bordercolor="#000000"
     borderopacity="0.25"
     inkscape:showpageshadow="2"
     inkscape:pageopacity="0.0"
     inkscape:pagecheckerboard="0"
     inkscape:deskcolor="#d1d1d1"
     showgrid="false"
     inkscape:zoom="5.656854"
     inkscape:cx="51.353632"
     inkscape:cy="81.582448"
     inkscape:window-width="1920"
     inkscape:window-height="1009"
     inkscape:window-x="-8"
     inkscape:window-y="-8"
     inkscape:window-maximized="1"
     inkscape:current-layer="svg27" />
  <!--path d="M 35 20 c 0 -10, 8 -13, 15 -13 c 22 0, 18 20, 17 25 l -7 0 c 3 0, 5 -5, 5 -7 c -15 -5, -16 -10, -16 -10" fill="transparent" stroke="black"/-->
  <!--服下-->
  <!--服上-->
  <!--頭-->
  <!--表情-->
  <!--髪-->
  <path
     style="fill:#969696;fill-opacity:1;fill-rule:evenodd;stroke:none;stroke-width:0.5"
     d="M 47.994875,58.585862 33,69.999998 l 1,30 h 36 z"
     id="path24"
     sodipodi:nodetypes="ccccc" />
  <path
     style="fill:#828c8c;fill-opacity:1;fill-rule:evenodd;stroke-width:2;stroke-linejoin:bevel"
     d="m 40,77.999998 -1,10 8,-4 4,-6 z"
     id="path5"
     sodipodi:nodetypes="ccccc" />
  <path
     style="fill:#788282;fill-opacity:1;fill-rule:evenodd;stroke-width:2;stroke-linejoin:bevel"
     d="m 50,77.999998 7,16 h 12 l -8,-16 z"
     id="path6"
     sodipodi:nodetypes="ccccc" />
  <path
     style="fill:#dcd2be;fill-opacity:1;fill-rule:evenodd;stroke-width:2;stroke-linejoin:bevel"
     d="m 40,51.999997 h 19 l 5,31.000001 H 36 Z"
     id="path4"
     sodipodi:nodetypes="ccccc" />
  <path
     style="fill:#1e1450;fill-opacity:1;fill-rule:evenodd;stroke-width:2;stroke-linejoin:bevel"
     d="m 35,86.999998 13,-4 6,11 -13,4 z"
     id="path2"
     sodipodi:nodetypes="ccccc" />
  <path
     style="fill:#1e1450;fill-opacity:1;fill-rule:evenodd;stroke-width:2;stroke-linejoin:bevel"
     d="m 53,86.999998 h 12 l 4,13 H 57 Z"
     id="path3"
     sodipodi:nodetypes="ccccc" />
  <path
     style="fill:#e6dcd2;fill-opacity:1;fill-rule:evenodd;stroke:none;stroke-width:0.5;stroke-linejoin:miter;stroke-dasharray:none;stroke-opacity:1"
     d="m 38,72 1,-3 4,-1 2,4 -3,3 z"
     id="path15"
     sodipodi:nodetypes="cccccc" />
  <path
     style="fill:#d2c8b4;fill-opacity:1;fill-rule:evenodd;stroke:none;stroke-width:0.5;stroke-linejoin:miter;stroke-dasharray:none;stroke-opacity:1"
     d="m 37.388273,64.298173 7.347495,3.17072 -3.61266,7.645592 -6.86136,-4.032933 z"
     id="path16"
     sodipodi:nodetypes="ccccc" />
  <path
     style="fill:#3c2828;fill-rule:evenodd;stroke:none;stroke-width:2;stroke-linejoin:bevel"
     d="m 42,100 -8,-2e-6 -4,-27 6.000002,-24.000001 9.999998,5 -6,26.000005 z"
     id="path7"
     sodipodi:nodetypes="ccccccc" />
  <path
     style="fill:#e6dcd2;fill-opacity:1;fill-rule:evenodd;stroke:none;stroke-width:2;stroke-linejoin:bevel;stroke-dasharray:none;stroke-opacity:1"
     d="m 46,53.999997 13,-5 4.250001,-5.25 -0.25,-14.25 4.5,-12.5 -12.750001,4.25 -13,0.75 -6,-5 -1,10.25 -4.75,13.75 6,8"
     id="path1"
     sodipodi:nodetypes="ccccccccccc" />
  <path
     style="fill:#9f8f89;fill-opacity:1;fill-rule:evenodd;stroke-width:2;stroke-linejoin:bevel"
     d="M 22,41.999997 63.705477,88.327688 65.826798,86.062523 24,38.999997 Z"
     id="path9"
     sodipodi:nodetypes="ccccc" />
  <path
     style="fill:#ffffff;fill-opacity:1;fill-rule:evenodd;stroke-width:2;stroke-linejoin:bevel"
     d="m 46.26004,41.162095 c 3.729211,0.647757 13.414625,1.770641 10.385631,-8.162098 -3.455532,-3.156643 -10.815306,0.437614 -10.385631,8.162098 z"
     id="path10"
     sodipodi:nodetypes="ccc" />
  <path
     style="fill:none;fill-opacity:1;fill-rule:evenodd;stroke:#000000;stroke-width:0.5;stroke-linejoin:bevel;stroke-dasharray:none;stroke-opacity:1"
     d="m 56.5,32.999997 c 2.049458,6.458838 -1.711011,8.913511 -6.968748,8.500001"
     id="path12"
     sodipodi:nodetypes="cc" />
  <path
     style="fill:#000000;fill-opacity:1;fill-rule:evenodd;stroke:none;stroke-width:0.5;stroke-linejoin:miter;stroke-dasharray:none;stroke-opacity:1"
     d="m 46.5,38.999997 c 0.73028,-3.990701 3.432055,-7.038244 8.406252,-7.156249 C 49.785325,31.379161 46.832096,33.816871 46.5,38.999997 Z"
     id="path13"
     sodipodi:nodetypes="ccc" />
  <path
     style="fill:#000000;fill-opacity:1;fill-rule:evenodd;stroke:none;stroke-width:0.5;stroke-linejoin:miter;stroke-dasharray:none;stroke-opacity:1"
     d="m 48,34.999997 c 0.718699,-1.044657 2.075879,-2.598234 4,-3 4.188063,10.921557 -5.291275,11.158386 -4,3 z"
     id="path14"
     sodipodi:nodetypes="ccc" />
  <path
     style="fill:#e6dcd2;fill-opacity:1;fill-rule:evenodd;stroke-width:0.5"
     d="m 51,70.999998 -2,3 4,4 2,-2 z"
     id="path17"
     sodipodi:nodetypes="ccccc" />
  <path
     style="fill:#c8beaa;fill-opacity:1;fill-rule:evenodd;stroke-width:0.5"
     d="m 50,70.999998 5,7 12,-7 -4,-7.000001 z"
     id="path18"
     sodipodi:nodetypes="ccccc" />
  <path
     style="fill:#3c2828;fill-rule:evenodd;stroke:none;stroke-width:2;stroke-linejoin:bevel"
     d="m 64,99.999998 h 22 l -10,-17 -6,-24.000001 -11,-10 -13,5 8,14.000001 z"
     id="path8"
     sodipodi:nodetypes="cccccccc" />
  <path
     style="fill:none;fill-rule:evenodd;stroke:#000000;stroke-width:0.5;stroke-opacity:1"
     d="m 41.133516,48.067648 c 0.608987,-2.201708 2.604162,-2.185516 5.568466,-0.618718"
     id="path19"
     sodipodi:nodetypes="cc" />
  <path
     style="fill:#ffffff;fill-opacity:1;fill-rule:evenodd;stroke-width:2;stroke-linejoin:bevel"
     d="m 39,40.999997 c -3.729211,0.647757 -8.028994,1.932739 -5,-8 1.555182,-2.007594 5.316049,1.102071 5,8 z"
     id="path20"
     sodipodi:nodetypes="ccc" />
  <path
     style="fill:none;fill-opacity:1;fill-rule:evenodd;stroke:#000000;stroke-width:0.5;stroke-linejoin:bevel;stroke-dasharray:none;stroke-opacity:1"
     d="m 33.057112,36.999997 c -0.580708,3.458838 1.211011,4.757261 2.968748,4.500001"
     id="path21"
     sodipodi:nodetypes="cc" />
  <path
     style="fill:#000000;fill-opacity:1;fill-rule:evenodd;stroke:none;stroke-width:0.5;stroke-linejoin:miter;stroke-dasharray:none;stroke-opacity:1"
     d="m 39.057112,38.999997 c -0.88653,-4.053201 -1.246316,-6.410421 -4.406252,-6.6 4.024036,-0.879609 4.105406,2.838749 4.406252,6.6 z"
     id="path22"
     sodipodi:nodetypes="ccc" />
  <path
     style="fill:#000000;fill-opacity:1;fill-rule:evenodd;stroke:none;stroke-width:0.5;stroke-linejoin:miter;stroke-dasharray:none;stroke-opacity:1"
     d="m 38.5,35.140628 c -0.390574,-1.075907 -1.38838,-2.082616 -2.5,-2.640631 -1.573025,11.27706 3.239229,9.513593 2.5,2.640631 z"
     id="path23"
     sodipodi:nodetypes="ccc" />
</svg>
