<?xml version="1.0" encoding="UTF-8" standalone="no"?>
<svg
   width="100"
   height="100"
   viewBox="0 0 200 200"
   version="1.1"
   id="svg27"
   sodipodi:docname="mae8.svg"
   inkscape:version="1.4 (86a8ad7, 2024-10-11)"
   xmlns:inkscape="http://www.inkscape.org/namespaces/inkscape"
   xmlns:sodipodi="http://sodipodi.sourceforge.net/DTD/sodipodi-0.dtd"
   xmlns="http://www.w3.org/2000/svg"
   xmlns:svg="http://www.w3.org/2000/svg">
  <defs
     id="defs27" />
  <sodipodi:namedview
     id="namedview27"
     pagecolor="#ffffff"
     bordercolor="#000000"
     borderopacity="0.25"
     inkscape:showpageshadow="2"
     inkscape:pageopacity="0.0"
     inkscape:pagecheckerboard="0"
     inkscape:deskcolor="#d1d1d1"
     showgrid="false"
     inkscape:zoom="3.9999998"
     inkscape:cx="39.875002"
     inkscape:cy="32.125002"
     inkscape:window-width="1920"
     inkscape:window-height="1009"
     inkscape:window-x="-8"
     inkscape:window-y="-8"
     inkscape:window-maximized="1"
     inkscape:current-layer="svg27" />
  <!--path d="M 35 20 c 0 -10, 8 -13, 15 -13 c 22 0, 18 20, 17 25 l -7 0 c 3 0, 5 -5, 5 -7 c -15 -5, -16 -10, -16 -10" fill="transparent" stroke="black"/-->
  <!--服下-->
  <!--服上-->
  <!--頭-->
  <!--表情-->
  <!--髪-->
  <path
     style="fill:#969696;fill-opacity:1;fill-rule:evenodd;stroke:none;stroke-width:0.5"
     d="m 66,138 28,2 32,4 -16,-44 -12,4 L 84,97.000002 76,104 Z"
     id="path24"
     sodipodi:nodetypes="cccccccc" />
  <path
     style="fill:#82a08c;fill-opacity:1;fill-rule:evenodd;stroke-width:2;stroke-linejoin:bevel"
     d="m 88,128 -5,16 h 10 l 6,-16 z"
     id="path5"
     sodipodi:nodetypes="ccccc" />
  <path
     style="fill:#78a082;fill-opacity:1;fill-rule:evenodd;stroke-width:2;stroke-linejoin:bevel"
     d="m 100,128 9,16 h 10 l -8,-16 z"
     id="path6"
     sodipodi:nodetypes="ccccc" />
  <path
     style="fill:#dcd2be;fill-opacity:1;fill-rule:evenodd;stroke-width:2;stroke-linejoin:bevel"
     d="m 88,102 h 21 l 5,31 H 86 Z"
     id="path4"
     sodipodi:nodetypes="ccccc" />
  <path
     style="fill:#1e1450;fill-opacity:1;fill-rule:evenodd;stroke-width:2;stroke-linejoin:bevel"
     d="m 85,137 h 12 l -4,13 H 81 Z"
     id="path2"
     sodipodi:nodetypes="ccccc" />
  <path
     style="fill:#1e1450;fill-opacity:1;fill-rule:evenodd;stroke-width:2;stroke-linejoin:bevel"
     d="m 105,137 h 12 l 6,13 h -12 z"
     id="path3"
     sodipodi:nodetypes="ccccc" />
  <path
     style="fill:#e6dcd2;fill-opacity:1;fill-rule:evenodd;stroke:none;stroke-width:2;stroke-linejoin:bevel;stroke-dasharray:none;stroke-opacity:1"
     d="m 98,104 13,-5 4.25,-5.25 L 115,79.5 119.5,67 l -12.75,4.25 -13,0.75 -6,-5 -1,10.25 L 82,91 l 6,8"
     id="path1"
     sodipodi:nodetypes="ccccccccccc" />
  <path
     style="fill:#9f8f89;fill-opacity:1;fill-rule:evenodd;stroke-width:2;stroke-linejoin:bevel"
     d="M 26,63.999999 75.705477,100.32769 77.826798,98.062525 28,60.999999 Z"
     id="path9"
     sodipodi:nodetypes="ccccc" />
  <path
     style="fill:#ffffff;fill-opacity:1;fill-rule:evenodd;stroke-width:2;stroke-linejoin:bevel"
     d="M 98.26004,91.162097 C 101.98925,91.809854 111.67467,92.932738 108.64567,83 107.22139,80.155856 97.830365,83.437613 98.26004,91.162097 Z"
     id="path10"
     sodipodi:nodetypes="ccc" />
  <path
     style="fill:none;fill-opacity:1;fill-rule:evenodd;stroke:#000000;stroke-width:0.5;stroke-linejoin:bevel;stroke-dasharray:none;stroke-opacity:1"
     d="m 108.5,83 c 2.04946,6.458837 -1.71101,8.91351 -6.96875,8.5"
     id="path12"
     sodipodi:nodetypes="cc" />
  <path
     style="fill:#000000;fill-opacity:1;fill-rule:evenodd;stroke:none;stroke-width:0.5;stroke-linejoin:miter;stroke-dasharray:none;stroke-opacity:1"
     d="m 98.5,89 c 0.73028,-3.990702 4.46369,-5.760215 8.40625,-7.15625 C 102.14359,82.352736 98.832096,83.816873 98.5,89 Z"
     id="path13"
     sodipodi:nodetypes="ccc" />
  <path
     style="fill:#000000;fill-opacity:1;fill-rule:evenodd;stroke:none;stroke-width:0.5;stroke-linejoin:miter;stroke-dasharray:none;stroke-opacity:1"
     d="m 100,85 c 0.7187,-1.044658 2.07588,-1.598231 4,-1.999998 2.66336,8.62346 -5.291275,10.158383 -4,1.999998 z"
     id="path14"
     sodipodi:nodetypes="ccc" />
  <path
     style="fill:#e6dcd2;fill-opacity:1;fill-rule:evenodd;stroke:none;stroke-width:0.5;stroke-linejoin:miter;stroke-dasharray:none;stroke-opacity:1"
     d="m 74,93.000002 3.487069,5.331106 -3.32872,3.393462 L 70.35765,98.277427 72,96.000002 l -1,-3"
     id="path15"
     sodipodi:nodetypes="cccccc" />
  <path
     style="fill:#d2c8b4;fill-opacity:1;fill-rule:evenodd;stroke:none;stroke-width:0.5;stroke-linejoin:miter;stroke-dasharray:none;stroke-opacity:1"
     d="M 75.388273,92.298175 92.735768,103.4689 87.5,111.5 70.261748,101.08155 Z"
     id="path16"
     sodipodi:nodetypes="ccccc" />
  <path
     style="fill:#e6dcd2;fill-opacity:1;fill-rule:evenodd;stroke-width:0.5"
     d="m 101,119 -2,3 4,4 2,-2 z"
     id="path17"
     sodipodi:nodetypes="ccccc" />
  <path
     style="fill:#c8beaa;fill-opacity:1;fill-rule:evenodd;stroke-width:0.5"
     d="m 100,119 5,7 12,-7 -4,-7 z"
     id="path18"
     sodipodi:nodetypes="ccccc" />
  <path
     style="fill:#3c2828;fill-rule:evenodd;stroke:none;stroke-width:2;stroke-linejoin:bevel"
     d="m 104,126 10,24 14,-4 -8,-39 -9,-8 -13,5 8,6 z"
     id="path8"
     sodipodi:nodetypes="cccccccc" />
  <path
     style="fill:none;fill-rule:evenodd;stroke:#000000;stroke-width:0.5;stroke-opacity:1"
     d="m 93.133516,98.06765 c 0.608987,-2.201708 2.604162,-2.185516 5.568466,-0.618718"
     id="path19"
     sodipodi:nodetypes="cc" />
  <path
     style="fill:#ffffff;fill-opacity:1;fill-rule:evenodd;stroke-width:2;stroke-linejoin:bevel"
     d="m 91,91 c -3.729211,0.647756 -8.028994,1.932738 -5,-8 0.430182,-1.632595 5.316049,1.10207 5,8 z"
     id="path20"
     sodipodi:nodetypes="ccc" />
  <path
     style="fill:none;fill-opacity:1;fill-rule:evenodd;stroke:#000000;stroke-width:0.5;stroke-linejoin:bevel;stroke-dasharray:none;stroke-opacity:1"
     d="m 85.057112,87 c -0.580708,3.458837 1.211011,4.75726 2.968748,4.5"
     id="path21"
     sodipodi:nodetypes="cc" />
  <path
     style="fill:#000000;fill-opacity:1;fill-rule:evenodd;stroke:none;stroke-width:0.5;stroke-linejoin:miter;stroke-dasharray:none;stroke-opacity:1"
     d="M 91.057112,89 C 90.170582,84.946798 89.435796,84.011453 86.65086,82.399999 90.831146,83.379765 90.756266,85.238748 91.057112,89 Z"
     id="path22"
     sodipodi:nodetypes="ccc" />
  <path
     style="fill:#000000;fill-opacity:1;fill-rule:evenodd;stroke:none;stroke-width:0.5;stroke-linejoin:miter;stroke-dasharray:none;stroke-opacity:1"
     d="m 90.5,86.000002 c -0.390574,-1.075907 -1.38838,-2.441985 -2.5,-3 -0.448025,9.605185 3.239229,9.872962 2.5,3 z"
     id="path23"
     sodipodi:nodetypes="ccc" />
  <path
     style="fill:#3c2828;fill-rule:evenodd;stroke:none;stroke-width:2;stroke-linejoin:bevel"
     d="M 84,97 88.000002,99 98,104 91,106"
     id="path11"
     sodipodi:nodetypes="cccc" />
</svg>
