<?xml version="1.0" encoding="UTF-8" standalone="no"?>
<svg
   width="100"
   height="100"
   viewBox="0 0 100 100"
   version="1.1"
   id="svg27"
   sodipodi:docname="mae.svg"
   inkscape:version="1.4 (86a8ad7, 2024-10-11)"
   xmlns:inkscape="http://www.inkscape.org/namespaces/inkscape"
   xmlns:sodipodi="http://sodipodi.sourceforge.net/DTD/sodipodi-0.dtd"
   xmlns="http://www.w3.org/2000/svg"
   xmlns:svg="http://www.w3.org/2000/svg">
  <defs
     id="defs27" />
  <sodipodi:namedview
     id="namedview27"
     pagecolor="#ffffff"
     bordercolor="#000000"
     borderopacity="0.25"
     inkscape:showpageshadow="2"
     inkscape:pageopacity="0.0"
     inkscape:pagecheckerboard="0"
     inkscape:deskcolor="#d1d1d1"
     showgrid="false"
     inkscape:zoom="7.9999996"
     inkscape:cx="40.062502"
     inkscape:cy="57.062503"
     inkscape:window-width="1920"
     inkscape:window-height="1009"
     inkscape:window-x="-8"
     inkscape:window-y="-8"
     inkscape:window-maximized="1"
     inkscape:current-layer="svg27" />
  <!--path d="M 35 20 c 0 -10, 8 -13, 15 -13 c 22 0, 18 20, 17 25 l -7 0 c 3 0, 5 -5, 5 -7 c -15 -5, -16 -10, -16 -10" fill="transparent" stroke="black"/-->
  <!--服下-->
  <!--服上-->
  <!--頭-->
  <!--表情-->
  <!--髪-->
  <path
     style="fill:#3c2828;fill-rule:evenodd;stroke:#000000;stroke-width:2;stroke-linejoin:bevel;stroke-dasharray:none;stroke-opacity:1"
     d="m 36.75,18.25 -4.5,13.5 5.75,8 h 22.5 l 6.750001,-13 -2.25,-6.25 4.5,-12.5 -12.750001,4.25 -13,0.75 -6,-5 z"
     id="path1"
     sodipodi:nodetypes="ccccccccccc" />
  <path
     style="fill:#3c2828;fill-rule:evenodd;stroke:#000000;stroke-width:2;stroke-linejoin:bevel;stroke-dasharray:none;stroke-opacity:1"
     d="M 36,75.625001 37,96 h 9 l 2,-11 1.000001,-9 z"
     id="path2"
     sodipodi:nodetypes="cccccc" />
  <path
     style="fill:#3c2828;fill-rule:evenodd;stroke:#000000;stroke-width:2;stroke-linejoin:bevel;stroke-dasharray:none;stroke-opacity:1"
     d="m 38.25,39.625 -6.625,15.125 -5,14.250001 8.875,1.375 z"
     id="path3"
     sodipodi:nodetypes="ccccc" />
  <path
     style="fill:#3c2828;fill-rule:evenodd;stroke:#000000;stroke-width:2;stroke-linejoin:bevel;stroke-dasharray:none;stroke-opacity:1"
     d="M 40.25,40.25 35.75,69 36,76 h 28.000001 l -3.5,-36.375 z"
     id="path4"
     sodipodi:nodetypes="cccccc" />
  <path
     style="fill:#3c2828;fill-rule:evenodd;stroke:#000000;stroke-width:2;stroke-linejoin:bevel;stroke-dasharray:none;stroke-opacity:1"
     d="m 60.875001,40.375 9,10.5 2.625,22.125001 -12,-0.125 z"
     id="path5"
     sodipodi:nodetypes="ccccc" />
  <path
     style="fill:#3c2828;fill-rule:evenodd;stroke:#000000;stroke-width:2;stroke-linejoin:bevel;stroke-dasharray:none;stroke-opacity:1"
     d="m 52,76 1,20 h 9 L 64.250001,85.750001 65.000001,76 Z"
     id="path6"
     sodipodi:nodetypes="cccccc" />
</svg>
