<svg width="80" height="80" viewBox="0 0 80 80" xmlns="http://www.w3.org/2000/svg">
  <!--path d="M 35 20 c 0 -10, 8 -13, 15 -13 c 22 0, 18 20, 17 25 l -7 0 c 3 0, 5 -5, 5 -7 c -15 -5, -16 -10, -16 -10" fill="transparent" stroke="black"/-->
  <!--服下-->
  <path d="M 20 10 l 40 0, 0 60, -40 0, 0 -60 z" fill='rgb(0, 0, 0)'/>
  <path d="M 25 15 l 10 0, 0 30, -10 0, 0 -30 z" fill='rgb(240, 240, 0)'/>
  <path d="M 30 15 l 20 0, 0 10, -20 0, 0 -10 z" fill='rgb(240, 240, 0)'/>
  <path d="M 30 35 l 20 0, 0 10, -20 0, 0 -10 z" fill='rgb(240, 240, 0)'/>
  <path d="M 45 15 l 10 0, 0 50, -10 0, 0 -50 z" fill='rgb(240, 240, 0)'/>
  <path d="M 25 55 l 25 0, 0 10, -25 0, 0 -10 z" fill='rgb(240, 240, 0)'/>
</svg>
